<svg xmlns="http://www.w3.org/2000/svg" viewBox="0 0 1024 500" width="1024" height="500">
  <rect width="1024" height="500" fill="#FFF4E6"/>
  <!-- Soft accent shapes -->
  <circle cx="900" cy="80" r="120" fill="#A8C5E8" opacity="0.35"/>
  <circle cx="50" cy="450" r="90" fill="#FFC83D" opacity="0.35"/>
  <!-- Mascot left -->
  <g transform="translate(80 100) scale(3.0)">
    <path fill="#A8C5E8" d="M16,72 Q10,72 10,78 L10,86 Q10,92 16,92 L92,92 Q98,92 98,86 L98,78 Q98,72 92,72 Z"/>
    <path fill="#D9474C" d="M18,18 L80,18 L80,78 L18,78 Z"/>
    <path fill="#FFF4E6" d="M80,18 L88,18 L88,78 L80,78 Z"/>
    <path fill="none" stroke="#2A1B6E" stroke-width="4" stroke-linecap="round" d="M32,38 Q38,46 44,38 M54,38 Q60,46 66,38"/>
    <path fill="none" stroke="#2A1B6E" stroke-width="3.5" stroke-linecap="round" d="M37,58 Q49,66 61,58"/>
    <path fill="none" stroke="#2A1B6E" stroke-width="3" stroke-linecap="round" stroke-linejoin="round" d="M70,10 L80,10 L70,20 L80,20 M82,2 L94,2 L82,12 L94,12"/>
  </g>
</svg>
