<svg xmlns="http://www.w3.org/2000/svg" viewBox="0 0 512 512" width="512" height="512">
  <rect width="512" height="512" fill="#FFF4E6"/>
  <g transform="translate(76 76) scale(3.333333)">
    <!-- Pillow -->
    <path fill="#A8C5E8" d="M16,72 Q10,72 10,78 L10,86 Q10,92 16,92 L92,92 Q98,92 98,86 L98,78 Q98,72 92,72 Z"/>
    <!-- Book body -->
    <path fill="#D9474C" d="M18,18 L80,18 L80,78 L18,78 Z"/>
    <!-- Book spine -->
    <path fill="#FFF4E6" d="M80,18 L88,18 L88,78 L80,78 Z"/>
    <!-- Sleeping eyes -->
    <path fill="none" stroke="#2A1B6E" stroke-width="4" stroke-linecap="round" d="M32,38 Q38,46 44,38 M54,38 Q60,46 66,38"/>
    <!-- Smile -->
    <path fill="none" stroke="#2A1B6E" stroke-width="3.5" stroke-linecap="round" d="M37,58 Q49,66 61,58"/>
    <!-- Zz sleep marks -->
    <path fill="none" stroke="#2A1B6E" stroke-width="3" stroke-linecap="round" stroke-linejoin="round" d="M70,10 L80,10 L70,20 L80,20 M82,2 L94,2 L82,12 L94,12"/>
  </g>
</svg>
